<?xml version="1.0" standalone="no"?>
<!DOCTYPE svg PUBLIC "-//W3C//DTD SVG 20010904//EN"
 "http://www.w3.org/TR/2001/REC-SVG-20010904/DTD/svg10.dtd">
<svg version="1.0" xmlns="http://www.w3.org/2000/svg"
 width="500.000000pt" height="150.000000pt" viewBox="0 0 500.000000 150.000000"
 preserveAspectRatio="xMidYMid meet">

<g transform="translate(0.000000,150.000000) scale(0.100000,-0.100000)"
fill="#000000" stroke="none">
<path d="M2119 1011 c-19 -21 -53 -61 -77 -90 -24 -28 -49 -51 -56 -51 -7 0
-33 -14 -57 -32 -38 -28 -82 -38 -97 -23 -2 2 12 32 32 68 20 35 36 69 36 75
0 25 -28 10 -41 -20 -7 -18 -35 -57 -63 -85 -40 -44 -55 -53 -83 -53 -20 0
-32 -4 -28 -10 3 -5 16 -10 28 -10 18 0 13 -9 -33 -55 -30 -30 -50 -55 -44
-55 5 0 34 25 64 55 30 30 62 55 72 55 17 0 16 -4 -7 -50 -26 -52 -32 -90 -14
-90 6 0 9 8 7 18 -3 9 8 43 24 75 25 51 31 57 59 57 l32 0 -43 -46 c-28 -31
-39 -49 -32 -56 14 -14 48 5 105 60 26 26 47 43 47 39 0 -3 -13 -28 -30 -54
-30 -47 -39 -93 -19 -93 6 0 9 9 6 20 -3 12 14 50 49 106 65 103 162 234 174
234 11 0 40 29 40 41 0 19 -19 8 -51 -30z m-158 -179 c-15 -28 -131 -135 -139
-128 -6 7 129 146 142 146 4 0 2 -8 -3 -18z m-147 -7 c-4 -8 -13 -15 -21 -15
-13 0 -13 3 -3 15 7 8 16 15 21 15 5 0 6 -7 3 -15z"/>
<path d="M3341 960 c-43 -54 -79 -90 -89 -90 -10 0 -47 -25 -83 -56 -123 -107
-179 -137 -179 -94 0 21 12 35 83 98 38 33 48 62 23 62 -8 0 -35 -23 -60 -51
-80 -89 -83 -180 -4 -138 16 8 22 8 29 -2 11 -18 43 -2 106 55 l52 47 -35 -66
c-19 -37 -32 -71 -28 -76 8 -14 24 -1 18 15 -10 27 172 298 226 336 28 20 41
50 21 50 -5 0 -41 -40 -80 -90z m-261 -118 c0 -4 -10 -13 -22 -21 -23 -14 -23
-14 -4 8 20 22 26 25 26 13z m150 -2 c0 -24 -134 -149 -147 -137 -4 5 133 147
143 147 2 0 4 -4 4 -10z"/>
<path d="M2696 958 c-8 -13 -33 -68 -56 -123 -23 -55 -50 -109 -61 -120 -19
-19 -19 -19 -19 3 0 13 -4 20 -10 17 -15 -9 -12 -55 3 -55 23 0 54 42 92 123
21 42 44 77 51 77 8 0 22 15 31 34 25 54 0 91 -31 44z m18 -33 c-4 -8 -11 -15
-16 -15 -6 0 -5 6 2 15 7 8 14 15 16 15 2 0 1 -7 -2 -15z"/>
<path d="M2018 802 c-42 -59 -74 -109 -71 -112 3 -3 14 7 26 22 12 14 37 45
55 67 45 56 56 51 27 -11 -14 -29 -25 -59 -25 -65 0 -19 40 -16 62 4 17 15 18
15 18 -5 0 -12 3 -22 8 -22 4 0 32 21 61 47 32 28 49 38 42 26 -17 -32 -14
-67 4 -59 8 3 22 9 32 13 12 5 14 3 8 -7 -5 -7 -4 -11 3 -9 5 2 31 32 56 67
25 34 50 62 56 62 14 0 13 -5 -10 -50 -45 -89 -7 -108 68 -34 l47 47 -51 -42
c-29 -22 -57 -41 -63 -41 -12 0 15 75 49 133 17 28 19 37 8 37 -8 0 -20 -6
-28 -12 -8 -8 -6 -1 4 15 34 55 8 37 -37 -25 -54 -75 -124 -145 -134 -134 -5
4 9 39 30 77 20 37 37 70 37 73 0 2 -16 0 -36 -4 -25 -6 -59 -31 -114 -84
-109 -107 -124 -103 -65 17 35 71 38 90 10 67 -8 -7 -15 -8 -15 -2 0 5 7 15
15 22 16 13 20 30 8 30 -5 -1 -42 -49 -85 -108z m207 -13 c-53 -54 -85 -76
-85 -60 0 17 98 111 116 111 13 0 4 -14 -31 -51z"/>
<path d="M2877 822 c-42 -65 -101 -121 -114 -109 -3 3 13 40 35 81 l41 75 -32
-6 c-43 -8 -87 -42 -131 -102 -36 -48 -46 -81 -26 -81 6 0 34 21 62 48 31 28
48 39 43 27 -27 -69 -10 -85 45 -39 l31 27 -7 -27 c-9 -35 3 -33 49 12 l39 37
-27 -55 c-39 -79 -112 -178 -136 -185 -11 -4 -18 -9 -15 -12 10 -10 67 33 96
73 40 56 162 285 155 292 -3 3 -6 3 -8 1 -67 -85 -120 -149 -123 -149 -6 0 13
35 52 97 18 29 29 55 24 58 -5 3 -29 -25 -53 -63z m-134 -44 c-34 -34 -65 -60
-67 -57 -10 9 45 80 77 100 57 34 53 20 -10 -43z"/>
</g>
</svg>
